<?xml version="1.0" encoding="utf-8"?>
<!-- Generator: Adobe Illustrator 27.9.0, SVG Export Plug-In . SVG Version: 6.00 Build 0)  -->
<svg version="1.1" id="Ebene_1" xmlns="http://www.w3.org/2000/svg" xmlns:xlink="http://www.w3.org/1999/xlink" x="0px" y="0px"
	 viewBox="0 0 802.6 802.7" style="enable-background:new 0 0 802.6 802.7;" xml:space="preserve">
<style type="text/css">
	.st0{fill:#00C4CF;}
</style>
<g>
	<path class="st0" d="M802.6,802.7c-267.6,0-534.9,0-802.6,0C0,535.1,0,267.7,0,0c267.4,0,534.8,0,802.6,0
		C802.6,267.4,802.6,534.8,802.6,802.7z M24.3,24.1c0,251.7,0,503.1,0,754.2c251.6,0,502.8,0,754,0c0-251.6,0-502.8,0-754.2
		C526.9,24.1,275.8,24.1,24.3,24.1z"/>
	<path class="st0" d="M407.6,325.2c3.4-12.8,6.9-25.5,10.3-38.3c15-55.9,30-111.8,44.9-167.8c1-3.7,2.5-4.7,6.1-4.6
		c6.5,0.3,13,0.1,20.1,0.1c-0.6,2.3-1,4.2-1.5,6c-22.2,82.9-44.4,165.9-66.5,248.8c-0.8,3-0.9,6.6-0.1,9.7
		c18.6,70.1,37.4,140.2,56.2,210.2c0.3,1.3,0.8,2.5,1.5,5.1c1.9-6.8,3.5-12.5,5-18.2c15.1-56.6,30.3-113.1,45.3-169.8
		c1-3.8,2.4-5.4,6.6-5.3c15.7,0.3,31.3,0.2,47,0c3.3,0,4.6,1.1,5.4,4.2c24.7,92.6,49.5,185.2,74.3,277.7c0.4,1.4,0.6,2.9,1.1,4.9
		c-7.5,0-14.4,0-21.4,0c-7.7,0-15.3-0.3-23,0.1c-4.4,0.2-5.9-1.4-7-5.5c-13.3-50.3-26.8-100.6-40.3-150.9
		c-3.9-14.6-7.9-29.2-11.8-43.9c-0.3-1.1-0.8-2.1-1.5-4c-6.3,23.5-12.4,46.1-18.4,68.7c-11.7,43.7-23.4,87.4-35,131.2
		c-0.9,3.4-2.3,4.4-5.8,4.4c-13.3-0.2-26.7-0.3-40,0c-4.6,0.1-6.2-1.5-7.3-5.7c-18.6-69.8-37.3-139.5-56-209.3
		c-0.3-1.3-0.8-2.5-1.6-4.9c-3.6,13.5-7,26-10.3,38.4c-15.7,58.8-31.5,117.6-47.2,176.5c-1,3.7-2.5,5.1-6.4,4.9
		c-6.4-0.4-12.9-0.1-20-0.1c3.1-11.6,5.9-22.5,8.8-33.4c20.5-76.5,41.1-153,61.5-229.5c0.7-2.6,0.7-5.6,0.1-8.2
		c-18.2-68.5-36.6-136.9-54.9-205.4c-0.2-0.8-0.6-1.5-1.3-3.4c-2.3,8.4-4.3,15.7-6.3,23.1c-14.7,55-29.5,109.9-44.1,164.9
		c-1.1,4.1-2.6,5.6-7,5.5c-14.2-0.3-28.3-0.2-42.5,0c-3.3,0-5-0.7-5.9-4.2c-24.8-92.9-49.7-185.8-74.6-278.7
		c-0.3-1.1-0.4-2.3-0.7-4.1c6,0,11.8,0,17.6,0c8.7,0,17.4,0.3,26-0.1c5-0.3,6.7,1.6,7.9,6.2c16.5,62.2,33.2,124.4,49.9,186.6
		c0.3,1.3,0.8,2.5,1.5,5c3.6-13.4,7-25.7,10.3-37.9c13.8-51.6,27.6-103.2,41.3-154.8c1-4,2.7-5.2,6.8-5.1
		c14.8,0.3,29.6,0.1,45.1,0.1c18.8,70.2,37.6,140.3,56.4,210.5C406.8,325.1,407.2,325.2,407.6,325.2z"/>
</g>
</svg>
